<svg width="113" height="64" viewBox="0 0 113 64" fill="none" xmlns="http://www.w3.org/2000/svg">
<g filter="url(#filter0_d_2_11)">
<path d="M72.8654 52.5089L34.1023 9.51044L33.8802 3.17116L40.1542 4.51233L75.1507 50.6583L72.8654 52.5089Z" fill="black"/>
</g>
<path d="M72.8654 52.5089L34.1023 9.51044L33.8802 3.17116L40.1542 4.51233L75.1507 50.6583L72.8654 52.5089Z" fill="url(#paint0_linear_2_11)"/>
<path d="M72.6454 49.6179L72.284 49.1716L72.6034 47.1408L72.9341 47.5492L72.6454 49.6179Z" fill="white"/>
<path d="M71.4173 48.1013L71.0559 47.655L71.3753 45.6242L71.706 46.0326L71.4173 48.1013Z" fill="white"/>
<path d="M70.0527 46.4162L69.6914 45.9699L70.0107 43.9391L70.3414 44.3475L70.0527 46.4162Z" fill="white"/>
<path d="M68.4152 44.394L68.0538 43.9478L68.3732 41.9169L68.7039 42.3253L68.4152 44.394Z" fill="white"/>
<path d="M66.7777 42.3719L66.4163 41.9257L66.7357 39.8948L67.0664 40.3032L66.7777 42.3719Z" fill="white"/>
<path d="M65.1402 40.3498L64.7788 39.9035L65.0982 37.8727L65.4289 38.281L65.1402 40.3498Z" fill="white"/>
<path d="M38.6255 9.01526L38.3972 8.4462L38.9063 8.78792L73.7119 50.7073L73.4312 50.9347L38.6255 9.01526Z" fill="#D2D2D2"/>
<path fill-rule="evenodd" clip-rule="evenodd" d="M72.8654 52.5089L34.1023 9.51044L33.8802 3.17117L40.1542 4.51233L75.1507 50.6583L72.8654 52.5089Z" stroke="#DADADA" stroke-width="2"/>
<path fill-rule="evenodd" clip-rule="evenodd" d="M70.9867 54.1524C71.7484 52.7101 72.6519 51.5657 73.6972 50.7192C74.7426 49.8727 75.9853 49.2791 77.4256 48.9382L77.733 50.6757L75.9032 50.5452L75.9307 51.7425L79.6878 56.3821L81.0985 56.9608L81.3389 60.1559L78.1297 59.3649L77.9308 57.8048L74.1411 53.5845L73.1961 53.2725L72.6088 55.1033L70.9867 54.1524Z" fill="#646464" stroke="#979797"/>
<path d="M77.8556 57.7655L77.4064 57.2108L77.8789 54.0316L78.3421 54.6036L77.8556 57.7655ZM77.0917 56.9039L76.635 56.3399L77.0452 53.0353L77.5161 53.6169L77.0917 56.9039ZM76.2553 55.9073L75.7976 55.342L76.2088 52.0388L76.6808 52.6217L76.2553 55.9073Z" fill="#C4C4C4"/>
<path fill-rule="evenodd" clip-rule="evenodd" d="M70.9867 54.1524C71.7484 52.7101 72.6519 51.5657 73.6972 50.7192C74.7426 49.8727 75.9853 49.2791 77.4256 48.9382L77.733 50.6757L75.9032 50.5452L75.9307 51.7425L79.6878 56.3821L81.0985 56.9608L81.3389 60.1559L78.1297 59.3649L77.9308 57.8048L74.1411 53.5845L73.1961 53.2725L72.6088 55.1033L70.9867 54.1524Z" stroke="#979797"/>
<g filter="url(#filter1_d_2_11)">
<path d="M39.8412 52.5089L78.6043 9.51044L78.8264 3.17116L72.5524 4.51233L37.5559 50.6583L39.8412 52.5089Z" fill="black"/>
</g>
<path d="M39.8412 52.5089L78.6043 9.51044L78.8264 3.17116L72.5524 4.51233L37.5559 50.6583L39.8412 52.5089Z" fill="url(#paint1_linear_2_11)"/>
<path d="M40.0612 49.6179L40.4225 49.1716L40.1032 47.1408L39.7725 47.5492L40.0612 49.6179Z" fill="white"/>
<path d="M41.2893 48.1013L41.6507 47.655L41.3313 45.6242L41.0006 46.0326L41.2893 48.1013Z" fill="white"/>
<path d="M42.6539 46.4162L43.0152 45.9699L42.6959 43.9391L42.3652 44.3475L42.6539 46.4162Z" fill="white"/>
<path d="M44.2914 44.394L44.6528 43.9478L44.3334 41.9169L44.0027 42.3253L44.2914 44.394Z" fill="white"/>
<path d="M45.9288 42.3719L46.2902 41.9256L45.9708 39.8948L45.6401 40.3032L45.9288 42.3719Z" fill="white"/>
<path d="M47.5663 40.3498L47.9277 39.9035L47.6083 37.8727L47.2777 38.281L47.5663 40.3498Z" fill="white"/>
<path d="M74.0811 9.01526L74.3095 8.4462L73.8003 8.78792L38.9947 50.7073L39.2754 50.9347L74.0811 9.01526Z" fill="#D2D2D2"/>
<path fill-rule="evenodd" clip-rule="evenodd" d="M39.8412 52.5089L78.6043 9.51044L78.8264 3.17117L72.5524 4.51233L37.5559 50.6583L39.8412 52.5089Z" stroke="#DADADA" stroke-width="2"/>
<path fill-rule="evenodd" clip-rule="evenodd" d="M41.7199 54.1524C40.9581 52.7101 40.0546 51.5657 39.0093 50.7192C37.964 49.8727 36.7212 49.2791 35.2809 48.9382L34.9735 50.6757L36.8033 50.5452L36.7758 51.7425L33.0187 56.3821L31.608 56.9608L31.3677 60.1559L34.5768 59.3649L34.7757 57.8048L38.5655 53.5845L39.5104 53.2725L40.0978 55.1033L41.7199 54.1524Z" fill="#646464" stroke="#979797"/>
<path d="M34.8509 57.7655L35.3002 57.2108L34.8277 54.0316L34.3644 54.6036L34.8509 57.7655ZM35.6148 56.9039L36.0715 56.3399L35.6613 53.0353L35.1904 53.6169L35.6148 56.9039ZM36.4512 55.9073L36.9089 55.342L36.4977 52.0388L36.0257 52.6217L36.4512 55.9073Z" fill="#C4C4C4"/>
<path fill-rule="evenodd" clip-rule="evenodd" d="M41.7199 54.1524C40.9581 52.7101 40.0546 51.5657 39.0093 50.7192C37.964 49.8727 36.7212 49.2791 35.2809 48.9382L34.9735 50.6757L36.8033 50.5452L36.7758 51.7425L33.0187 56.3821L31.608 56.9608L31.3677 60.1559L34.5768 59.3649L34.7757 57.8048L38.5655 53.5845L39.5104 53.2725L40.0978 55.1033L41.7199 54.1524Z" stroke="#979797"/>
<path d="M56.6467 55.9423C71.0736 55.9423 82.7688 44.2471 82.7688 29.8202C82.7688 15.3934 71.0736 3.69817 56.6467 3.69817C42.2199 3.69817 30.5247 15.3934 30.5247 29.8202C30.5247 44.2471 42.2199 55.9423 56.6467 55.9423Z" fill="url(#paint2_linear_2_11)"/>
<path fill-rule="evenodd" clip-rule="evenodd" d="M82.7688 29.8202C82.7688 15.3934 71.0736 3.69817 56.6467 3.69817C42.2199 3.69817 30.5247 15.3934 30.5247 29.8202C30.5247 44.2471 42.2199 55.9423 56.6467 55.9423C71.0736 55.9423 82.7688 44.2471 82.7688 29.8202ZM33.5722 29.8202C33.5722 17.0765 43.903 6.74574 56.6467 6.74574C69.3904 6.74574 79.7212 17.0765 79.7212 29.8202C79.7212 42.5639 69.3904 52.8947 56.6467 52.8947C43.903 52.8947 33.5722 42.5639 33.5722 29.8202Z" fill="#CED0D0"/>
<path d="M56.7055 9.48129C67.9708 9.48129 77.1031 18.6136 77.1031 29.8789C77.1031 41.1443 67.9708 50.2766 56.7055 50.2766C45.4401 50.2766 36.3078 41.1443 36.3078 29.8789C36.3078 18.6136 45.4401 9.48129 56.7055 9.48129ZM56.7055 13.0526C47.4126 13.0526 39.8792 20.586 39.8792 29.8789C39.8792 39.1719 47.4126 46.7052 56.7055 46.7052C65.9984 46.7052 73.5318 39.1719 73.5318 29.8789C73.5318 20.586 65.9984 13.0526 56.7055 13.0526Z" fill="white" stroke="#E2E2E2"/>
<path fill-rule="evenodd" clip-rule="evenodd" d="M57.5175 11.0994C57.5175 11.5803 57.1276 11.9702 56.6467 11.9702C56.1658 11.9702 55.776 11.5803 55.776 11.0994C55.776 10.6185 56.1658 10.2287 56.6467 10.2287C57.1276 10.2287 57.5175 10.6185 57.5175 11.0994ZM61.5385 23.9012C61.5385 26.3057 59.5893 28.2549 57.1848 28.2549C54.7804 28.2549 52.8312 26.3057 52.8312 23.9012C52.8312 21.4967 54.7804 19.5475 57.1848 19.5475C59.5893 19.5475 61.5385 21.4967 61.5385 23.9012ZM55.1229 33.9024C55.1229 36.3069 53.1737 38.2561 50.7692 38.2561C48.3648 38.2561 46.4156 36.3069 46.4156 33.9024C46.4156 31.498 48.3648 29.5488 50.7692 29.5488C53.1737 29.5488 55.1229 31.498 55.1229 33.9024ZM64.1336 38.2561C66.5381 38.2561 68.4873 36.3069 68.4873 33.9024C68.4873 31.498 66.5381 29.5488 64.1336 29.5488C61.7291 29.5488 59.7799 31.498 59.7799 33.9024C59.7799 36.3069 61.7291 38.2561 64.1336 38.2561ZM66.0072 14.3647C66.4881 14.3647 66.8779 13.9748 66.8779 13.4939C66.8779 13.0131 66.4881 12.6232 66.0072 12.6232C65.5263 12.6232 65.1364 13.0131 65.1364 13.4939C65.1364 13.9748 65.5263 14.3647 66.0072 14.3647ZM73.8438 20.4598C73.8438 20.9407 73.4539 21.3306 72.973 21.3306C72.4921 21.3306 72.1023 20.9407 72.1023 20.4598C72.1023 19.9789 72.4921 19.5891 72.973 19.5891C73.4539 19.5891 73.8438 19.9789 73.8438 20.4598ZM75.3676 30.691C75.8484 30.691 76.2383 30.3011 76.2383 29.8202C76.2383 29.3393 75.8484 28.9495 75.3676 28.9495C74.8867 28.9495 74.4968 29.3393 74.4968 29.8202C74.4968 30.3011 74.8867 30.691 75.3676 30.691ZM73.8438 39.1807C73.8438 39.6616 73.4539 40.0514 72.973 40.0514C72.4921 40.0514 72.1023 39.6616 72.1023 39.1807C72.1023 38.6998 72.4921 38.3099 72.973 38.3099C73.4539 38.3099 73.8438 38.6998 73.8438 39.1807ZM66.0072 46.7996C66.4881 46.7996 66.8779 46.4098 66.8779 45.9289C66.8779 45.448 66.4881 45.0581 66.0072 45.0581C65.5263 45.0581 65.1364 45.448 65.1364 45.9289C65.1364 46.4098 65.5263 46.7996 66.0072 46.7996ZM48.157 45.9289C48.157 46.4098 47.7672 46.7996 47.2863 46.7996C46.8054 46.7996 46.4156 46.4098 46.4156 45.9289C46.4156 45.448 46.8054 45.0581 47.2863 45.0581C47.7672 45.0581 48.157 45.448 48.157 45.9289ZM40.3204 40.0514C40.8013 40.0514 41.1912 39.6616 41.1912 39.1807C41.1912 38.6998 40.8013 38.3099 40.3204 38.3099C39.8395 38.3099 39.4497 38.6998 39.4497 39.1807C39.4497 39.6616 39.8395 40.0514 40.3204 40.0514ZM38.7966 29.8202C38.7966 30.3011 38.4068 30.691 37.9259 30.691C37.445 30.691 37.0552 30.3011 37.0552 29.8202C37.0552 29.3393 37.445 28.9495 37.9259 28.9495C38.4068 28.9495 38.7966 29.3393 38.7966 29.8202ZM40.3204 21.3306C40.8013 21.3306 41.1912 20.9407 41.1912 20.4598C41.1912 19.9789 40.8013 19.5891 40.3204 19.5891C39.8395 19.5891 39.4497 19.9789 39.4497 20.4598C39.4497 20.9407 39.8395 21.3306 40.3204 21.3306ZM48.157 13.4939C48.157 13.9748 47.7672 14.3647 47.2863 14.3647C46.8054 14.3647 46.4156 13.9748 46.4156 13.4939C46.4156 13.0131 46.8054 12.6232 47.2863 12.6232C47.7672 12.6232 48.157 13.0131 48.157 13.4939Z" fill="url(#paint3_radial_2_11)"/>
<path d="M56.6467 49.4118C57.1276 49.4118 57.5175 49.022 57.5175 48.5411C57.5175 48.0602 57.1276 47.6703 56.6467 47.6703C56.1658 47.6703 55.776 48.0602 55.776 48.5411C55.776 49.022 56.1658 49.4118 56.6467 49.4118Z" fill="url(#paint4_radial_2_11)"/>
<path d="M14.4405 25.3002C10.1749 25.3002 8.04208 26.7091 8.04208 29.5267C8.04208 30.779 8.57039 31.7378 9.62701 32.4031C10.6836 33.0684 13.1491 34.0272 17.0234 35.2795C20.9368 36.5318 23.6762 37.9602 25.2416 39.5647C26.8069 41.13 27.5896 43.5564 27.5896 46.8436C27.5896 51.031 26.3178 54.2009 23.774 56.3532C21.2303 58.5056 17.9039 59.5818 13.7948 59.5818C10.7423 59.5818 7.00502 59.1122 2.58286 58.173L0.46961 57.7621L1.29143 51.481C6.53541 52.1854 10.5467 52.5376 13.3252 52.5376C17.4734 52.5376 19.5475 50.8157 19.5475 47.3719C19.5475 46.1196 19.0584 45.1413 18.08 44.4369C17.1408 43.7325 15.2428 42.9693 12.386 42.1475C7.84641 40.8561 4.6374 39.3299 2.75896 37.5688C0.919654 35.7686 0 33.2836 0 30.1138C0 26.1221 1.21316 23.1479 3.63948 21.1912C6.0658 19.2344 9.39221 18.2561 13.6187 18.2561C16.5146 18.2561 20.1932 18.6474 24.6545 19.4301L26.7678 19.841L26.1221 26.2395C20.6042 25.6133 16.7103 25.3002 14.4405 25.3002Z" fill="#0092E5"/>
<path d="M113 58.8774H90.2826V18.9605H98.3834V51.7158H113V58.8774Z" fill="#0092E5"/>
<defs>
<filter id="filter0_d_2_11" x="31.8802" y="2.17117" width="45.2705" height="53.3377" filterUnits="userSpaceOnUse" color-interpolation-filters="sRGB">
<feFlood flood-opacity="0" result="BackgroundImageFix"/>
<feColorMatrix in="SourceAlpha" type="matrix" values="0 0 0 0 0 0 0 0 0 0 0 0 0 0 0 0 0 0 127 0" result="hardAlpha"/>
<feOffset dy="1"/>
<feGaussianBlur stdDeviation="1"/>
<feColorMatrix type="matrix" values="0 0 0 0 0 0 0 0 0 0 0 0 0 0 0 0 0 0 0.5 0"/>
<feBlend mode="normal" in2="BackgroundImageFix" result="effect1_dropShadow_2_11"/>
<feBlend mode="normal" in="SourceGraphic" in2="effect1_dropShadow_2_11" result="shape"/>
</filter>
<filter id="filter1_d_2_11" x="35.5559" y="2.17117" width="45.2705" height="53.3377" filterUnits="userSpaceOnUse" color-interpolation-filters="sRGB">
<feFlood flood-opacity="0" result="BackgroundImageFix"/>
<feColorMatrix in="SourceAlpha" type="matrix" values="0 0 0 0 0 0 0 0 0 0 0 0 0 0 0 0 0 0 127 0" result="hardAlpha"/>
<feOffset dy="1"/>
<feGaussianBlur stdDeviation="1"/>
<feColorMatrix type="matrix" values="0 0 0 0 0 0 0 0 0 0 0 0 0 0 0 0 0 0 0.5 0"/>
<feBlend mode="normal" in2="BackgroundImageFix" result="effect1_dropShadow_2_11"/>
<feBlend mode="normal" in="SourceGraphic" in2="effect1_dropShadow_2_11" result="shape"/>
</filter>
<linearGradient id="paint0_linear_2_11" x1="-1083.35" y1="-1933.33" x2="-990.692" y2="-4309.49" gradientUnits="userSpaceOnUse">
<stop stop-color="#E0E8EA"/>
<stop offset="0.206594" stop-color="#808080"/>
<stop offset="0.675672" stop-color="#191918"/>
<stop offset="1" stop-color="#C2C2C2"/>
</linearGradient>
<linearGradient id="paint1_linear_2_11" x1="1196.05" y1="-1933.33" x2="1103.4" y2="-4309.49" gradientUnits="userSpaceOnUse">
<stop stop-color="#E0E8EA"/>
<stop offset="0.206594" stop-color="#808080"/>
<stop offset="0.675672" stop-color="#191918"/>
<stop offset="1" stop-color="#C2C2C2"/>
</linearGradient>
<linearGradient id="paint2_linear_2_11" x1="463.496" y1="-264.397" x2="5142.03" y2="5503.55" gradientUnits="userSpaceOnUse">
<stop stop-color="#EDEDED"/>
<stop offset="0.474814" stop-color="#757575"/>
<stop offset="1" stop-color="#E4E4E4"/>
</linearGradient>
<radialGradient id="paint3_radial_2_11" cx="0" cy="0" r="1" gradientUnits="userSpaceOnUse" gradientTransform="translate(133.489 94.3517) scale(86.41 80.6494)">
<stop stop-color="#626262"/>
<stop offset="1" stop-color="#2C2B2B"/>
</radialGradient>
<radialGradient id="paint4_radial_2_11" cx="0" cy="0" r="1" gradientUnits="userSpaceOnUse" gradientTransform="translate(142.85 135.408) scale(86.41)">
<stop stop-color="#626262"/>
<stop offset="1" stop-color="#2C2B2B"/>
</radialGradient>
</defs>
</svg>
